<svg width="25" height="24" viewBox="0 0 25 24" fill="none" xmlns="http://www.w3.org/2000/svg">
<mask id="mask0_17_13" style="mask-type:luminance" maskUnits="userSpaceOnUse" x="0" y="0" width="25" height="24">
<rect x="0.299194" y="0.342102" width="23.823" height="22.9474" fill="white"/>
</mask>
<g mask="url(#mask0_17_13)">
<path fill-rule="evenodd" clip-rule="evenodd" d="M4.26968 4.16666H20.1517C21.2481 4.16666 22.137 5.02282 22.137 6.07894V17.5526C22.137 18.6088 21.2481 19.4649 20.1517 19.4649H4.26968C3.17325 19.4649 2.28442 18.6088 2.28442 17.5526V6.07894C2.28442 5.02719 3.17779 4.16666 4.26968 4.16666ZM20.1517 7.3984V6.07892H4.26965V7.3984L12.2107 11.223L20.1517 7.3984ZM20.1517 9.54015L12.6573 13.1448C12.3764 13.2812 12.0449 13.2812 11.764 13.1448L4.26965 9.54015V17.5526H20.1517V9.54015Z" fill="#03459C"/>
</g>
</svg>
