<svg width="25" height="24" viewBox="0 0 25 24" fill="none" xmlns="http://www.w3.org/2000/svg">
<mask id="mask0_17_22" style="mask-type:luminance" maskUnits="userSpaceOnUse" x="0" y="0" width="25" height="24">
<rect x="0.299316" width="23.823" height="24" fill="white"/>
</mask>
<g mask="url(#mask0_17_22)">
<path fill-rule="evenodd" clip-rule="evenodd" d="M15.6369 11.7097H7.56784C6.93121 11.7097 6.41512 12.2296 6.41512 12.871V18.6775C6.41512 19.3188 6.93121 19.8387 7.56784 19.8387H15.6369C16.2736 19.8387 16.7897 19.3188 16.7897 18.6775V12.871C16.7897 12.2296 16.2736 11.7097 15.6369 11.7097ZM7.56791 10.5483C6.29464 10.5483 5.26245 11.5882 5.26245 12.8709V18.6774C5.26245 19.9601 6.29464 21 7.56791 21H15.637C16.9103 21 17.9425 19.9601 17.9425 18.6774V12.8709C17.9425 11.5882 16.9103 10.5483 15.637 10.5483H7.56791ZM7.56793 7.06452C7.56793 5.61241 8.33691 4.2706 9.5852 3.54454C10.8335 2.81849 12.3715 2.81849 13.6197 3.54454C14.868 4.2706 15.637 5.6124 15.637 7.06451V10.5484H14.4843V7.06452C14.4843 5.46111 13.1941 4.16129 11.6025 4.16129C10.0109 4.16129 8.72066 5.4611 8.72066 7.0645V10.5484H7.56793V7.06452Z" fill="#03459C"/>
</g>
</svg>
